PathFileType	4	(X/Y/Z)	Run_500 03
DataRate	CameraRate	NumFrames	NumMarkers	Units	OrigDataRate	OrigDataStartFrame	OrigNumFrames
100	100	5	42	mm	100	172	128
Frame#	Time	RASI			LPSI			RPSI			RTH1			RTH2			RTH3			LTH1			LTH2			LTH3			RTB1			RTB2			RTB3			LTB1			LTB2			LTB3			RCAL			RTOE			RMT5			LCAL			LTOE			LMT5			LACR			RACR			CLAV			C7			RUA1			RUA2			RUA3			RLEL			RMEL			LUA1			LUA2			LUA3			LLEL			LMEL			RFAsuperior			RFAradius			RFAulna			LFAsuperior			LFAradius			LFAulna			LASI			
		X1	Y1	Z1	X2	Y2	Z2	X3	Y3	Z3	X4	Y4	Z4	X5	Y5	Z5	X6	Y6	Z6	X7	Y7	Z7	X8	Y8	Z8	X9	Y9	Z9	X10	Y10	Z10	X11	Y11	Z11	X12	Y12	Z12	X13	Y13	Z13	X14	Y14	Z14	X15	Y15	Z15	X16	Y16	Z16	X17	Y17	Z17	X18	Y18	Z18	X19	Y19	Z19	X20	Y20	Z20	X21	Y21	Z21	X22	Y22	Z22	X23	Y23	Z23	X24	Y24	Z24	X25	Y25	Z25	X26	Y26	Z26	X27	Y27	Z27	X28	Y28	Z28	X29	Y29	Z29	X30	Y30	Z30	X31	Y31	Z31	X32	Y32	Z32	X33	Y33	Z33	X34	Y34	Z34	X35	Y35	Z35	X36	Y36	Z36	X37	Y37	Z37	X38	Y38	Z38	X39	Y39	Z39	X40	Y40	Z40	X41	Y41	Z41	X42	Y42	Z42	

162	2	752.324487	981.678549	-225.726686	560.374984	1066.815931	-375.071029	567.109342	1060.408958	-292.192654	704.209084	851.36164	-146.671366	767.138523	722.204887	-143.206751	708.104204	617.4929550000001	-138.027997	679.681296	874.50878	-526.50377	772.337798	775.371752	-503.774536	727.285065	627.564353	-486.316491	608.545493	499.816071	-209.069013	524.864399	581.843535	-171.513535	434.475685	590.592011	-248.473822	801.646667	408.298325	-407.276644	734.4151450000001	333.97429	-468.467637	747.306097	209.723077	-380.752217	372.001739	757.791825	-282.949345	251.73056	556.563115	-286.52572	228.252039	601.4366230000001	-205.37851	589.319011	84.259434	-346.831061	827.895711	69.91561299999999	-377.947453	782.062384	49.028304	-458.004415	715.106509	1483.948319	-553.251745	716.807779	1502.162914	-204.317547	790.459233	1460.388199	-352.149459	651.431203	1531.103948	-394.916134	661.334842	1403.44963	-112.234538	583.389274	1332.281063	-124.54279	625.136269	1297.789824	-66.424066	602.659022	1208.226511	-28.102687	563.068311	1188.583841	-95.959981	671.596677	1395.253823	-656.032782	604.577756	1323.292755	-667.6955380000001	658.4757520000001	1294.563724	-722.461595	657.723169	1216.608726	-769.569543	588.72293	1189.850359	-737.96335	641.629324	1135.511247	-20.667298	786.404103	1003.838446	-80.48578999999999	732.134691	967.611144	-51.957315	726.611775	1123.794395	-717.722919	798.141948	1068.137628	-588.966355	768.976436	1020.544094	-626.541255	751.356341	957.796938	-475.174022	
163	2.01	747.946044	974.800081	-226.975175	556.280863	1065.063627	-374.234154	562.762429	1057.299978	-291.434161	706.623068	850.032393	-147.314065	783.42453	727.685082	-144.669568	734.109339	619.671065	-136.373293	670.227743	870.990985	-526.3070269999999	761.783197	769.966328	-502.910493	712.651631	622.882359	-485.121012	641.987521	500.130842	-211.702419	555.68573	577.683686	-170.896492	464.826686	584.762791	-247.634741	775.929853	400.607149	-405.07427	702.903232	330.610138	-466.188896	707.897876	206.62024	-378.357968	394.120415	750.3738	-278.394207	285.007619	542.946515	-284.827887	260.672183	584.795797	-202.339604	541.885251	87.168222	-343.581485	779.6873430000001	68.983496	-375.869783	733.12934	48.831528	-455.564541	719.302684	1477.370176	-554.566069	713.349183	1497.45122	-205.301071	790.384201	1454.480794	-350.53809	652.469235	1526.967155	-397.577454	654.796497	1399.343073	-114.001535	576.275639	1328.154599	-128.309472	615.070861	1294.73655	-68.68883099999999	589.496093	1205.560466	-30.132433	552.6887379999999	1186.301351	-99.099205	680.725171	1386.41042	-656.3895230000001	618.65971	1309.65179	-668.179763	674.9403160000001	1284.603212	-722.386194	681.547917	1205.936988	-767.830459	612.586353	1175.003665	-739.736435	623.902076	1131.225433	-19.177114	760.50581	987.116609	-70.13145900000001	702.95852	955.8932	-41.939519	753.270665	1117.388748	-711.389261	820.564915	1068.329277	-578.530714	797.464691	1018.521695	-617.914283	746.04702	949.2547049999999	-476.199647	
164	2.02	744.511456	971.431119	-225.832627	552.798704	1064.312079	-373.435245	558.79995	1056.169431	-290.513139	706.668237	852.300709	-147.194573	799.778136	737.8190949999999	-147.189173	760.429764	626.699593	-136.681656	661.6594720000001	869.106393	-525.13831	750.990393	766.063504	-502.505411	695.315983	618.894999	-484.993972	675.920224	503.317499	-215.276651	585.051185	574.019313	-172.047223	493.269838	577.21332	-248.030154	746.594155	393.347916	-404.846487	669.5263639999999	327.156199	-465.58241	666.488544	203.897102	-377.733136	409.819875	738.88416	-274.657967	318.943736	523.18385	-283.496161	292.896229	561.265217	-199.348903	494.112955	90.63169000000001	-342.774908	730.857303	68.017499	-374.904086	683.925108	48.429729	-454.58442	723.01757	1473.759162	-554.820524	710.281929	1494.929071	-205.668409	789.813076	1451.374796	-348.989181	653.923449	1525.523667	-399.24053	648.339009	1397.898551	-115.354239	569.557675	1326.706355	-132.887104	604.656256	1294.299902	-71.33411099999999	576.447556	1205.905431	-32.211809	542.311629	1186.677391	-102.198904	689.382285	1380.358513	-655.891943	631.910759	1298.335983	-665.692955	690.022107	1277.875391	-720.867398	704.389516	1199.217772	-764.290474	636.094523	1163.882919	-738.851993	606.344301	1130.315862	-18.015603	733.034348	973.7239960000001	-61.387273	672.758297	948.602834	-33.077138	779.302628	1115.562475	-703.270733	842.635939	1072.883748	-566.507422	826.065929	1021.376921	-607.394168	741.676563	944.259852	-474.827167	
165	2.03	742.214716	972.3372900000001	-223.284274	549.9119889999999	1064.491031	-373.096256	555.787731	1057.185052	-290.101528	706.511158	856.984198	-146.907596	814.709507	751.652892	-150.418472	785.5428889999999	637.941508	-138.936209	654.2659	868.422261	-523.9743099999999	739.1984210000001	761.94249	-502.486152	674.767652	615.925181	-485.281471	709.4888989999999	509.05355	-219.009919	613.138114	570.916928	-174.366246	520.3453029999999	567.9644070000001	-249.447767	713.74666	387.481214	-405.526007	633.925483	324.950986	-465.793581	623.110081	202.444557	-378.177503	420.89705	722.3498530000001	-271.733997	354.13546	498.311408	-282.623078	325.99745	532.112041	-196.907851	445.819641	95.26388300000001	-343.741437	681.074172	67.46848	-375.567015	633.893436	48.158852	-455.134819	726.729744	1473.121539	-554.37452	707.751322	1494.598058	-205.610886	789.069088	1450.671291	-347.684378	655.067647	1525.95149	-400.15956	641.930646	1399.292268	-116.405348	563.202084	1328.489016	-138.010319	594.0955750000001	1296.929599	-74.09084300000001	563.531832	1209.668852	-34.104825	531.770346	1190.380493	-104.970616	698.550825	1377.223095	-654.7295769999999	644.402675	1290.317421	-661.9532850000001	703.992021	1273.990741	-717.921979	725.366605	1195.944049	-759.29203	658.376962	1156.521595	-735.251963	588.973718	1132.982379	-17.157187	704.766521	964.828595	-54.187039	642.297081	946.230178	-25.92537	803.739582	1118.357531	-693.811289	864.055441	1082.371536	-553.5439239999999	854.040543	1029.413095	-595.116392	738.451365	943.547135	-472.06493	
166	2.04	740.413964	977.165194	-221.207669	548.060962	1066.007217	-373.460641	554.058479	1060.448657	-290.527276	708.300918	863.064874	-147.29196	827.085524	767.993454	-153.879419	808.222127	652.609484	-142.829635	647.671621	868.765818	-523.485956	725.757561	757.062202	-502.819606	651.339085	614.871515	-485.282465	741.927052	516.673225	-223.111992	640.223651	568.042548	-177.265885	547.118614	557.315874	-251.750547	678.212881	384.172345	-406.672936	595.444264	325.79725	-466.312829	578.616949	203.637274	-379.518998	429.864655	700.150773	-269.529806	391.165629	469.720515	-282.181241	360.946435	498.920913	-195.316838	397.599791	102.548889	-345.776293	630.6418640000001	67.225735	-377.132276	583.027823	47.868027	-456.149602	730.873966	1475.22329	-553.174798	705.589835	1496.437018	-205.298921	788.474468	1451.993219	-346.313292	655.622515	1527.820021	-400.634539	635.634284	1403.348407	-117.238538	556.957798	1333.483419	-142.85492	583.748026	1302.64686	-76.498124	550.67888	1216.650102	-35.654462	521.0297839999999	1197.539448	-107.272401	708.501176	1377.176301	-652.865552	656.225472	1286.611501	-658.361824	717.145934	1272.72207	-713.6118739999999	743.7988319999999	1195.372467	-752.925267	678.991441	1152.504675	-729.157987	571.639909	1138.994367	-16.547228	676.966865	961.799953	-47.643616	612.556887	948.680923	-20.776706	825.784621	1125.156977	-683.458789	884.279776	1096.975081	-540.3259420000001	880.482893	1042.469847	-581.379058	735.740052	946.681846	-469.805161	
